<?xml version="1.0" encoding="utf-8"?>
<!-- Generator: Adobe Illustrator 19.0.0, SVG Export Plug-In . SVG Version: 6.00 Build 0)  -->
<svg version="1.1" id="Details_by_NICF-Nettie" xmlns="http://www.w3.org/2000/svg" xmlns:xlink="http://www.w3.org/1999/xlink"
	 x="0px" y="0px" viewBox="0 0 193.5 120.3" style="enable-background:new 0 0 193.5 120.3;" xml:space="preserve">
<style type="text/css">
	.st0{fill-rule:evenodd;clip-rule:evenodd;fill:#F4C5A1;}
	.st1{fill-rule:evenodd;clip-rule:evenodd;fill:#010202;}
	.st2{fill-rule:evenodd;clip-rule:evenodd;fill:#FFFFFF;}
	.st3{fill:#244F89;}
	.st4{fill:#010202;}
	.st5{fill-rule:evenodd;clip-rule:evenodd;fill:#FFED00;}
	.st6{fill:#254F8A;}
</style>
<g id="Ebene_4">
	<rect x="89.5" y="30.1" class="st0" width="18.1" height="10.9"/>
</g>
<g id="Ebene_9">
	<g id="Ebene_1">
		<g>
			<path class="st1" d="M139.4,8.9c-9.6,8-21.4,12.5-32,14.3L106,11.3l-2,3.5c0,0-2.9-0.8-6.1-0.9c-3.1-0.1-6.7,1.5-6.7,1.5
				l-2.7-4.5l-0.5,12.6c-11-1.6-23.6-6-33.8-14.5C29.2,29.1,12.3,61.9,9,89.4c7.4-7.2,21.3-6.5,25.4,4.8c7.2-5.4,19.1-1.1,22.1,7.8
				c9.3-8.2,28.9-10.8,40.4,9.1c11.5-20,31-17.4,40.4-9.1c3-8.9,15-13.2,22.1-7.8c4.1-11.3,18-11.9,25.4-4.8
				C181.5,61.9,164.6,29.1,139.4,8.9z M93,35.6c0-0.6-0.6-0.9-1-1.3c-0.1-0.1-0.2-0.3-0.3-0.4c-0.2-0.1-0.5-0.3-0.6-0.6
				c0-0.1-0.1-0.2-0.1-0.3c-0.1-0.1-0.2-0.2-0.2-0.4c0-0.5-0.1-1,0-1.5c0-0.6,0.9-0.6,1-0.1c0.5-0.1,1,0.1,1.2,0.7
				c0.2,0.8,0.5,1.4,1.1,2c0.6,0.6,0.9,1.2,0.8,2C95,36.9,93,36.9,93,35.6z M101.8,32.9c-0.4,0.3-1,0.4-1.5,0.6
				c-0.3,0.1-0.6,0.1-0.9,0.1c-0.3,0-0.6-0.2-0.9,0c-0.2,0.1-0.4,0.1-0.5,0c-0.6,0.2-0.8-0.7-0.2-1c0.5-0.2,1-0.2,1.5-0.2
				c0.7,0,1.2-0.1,1.9-0.4c0.1-0.1,0.2-0.1,0.3,0C102,31.9,102.3,32.6,101.8,32.9z M103.8,35c-0.6,0-0.6-1,0-1
				C104.4,34,104.4,35,103.8,35z"/>
			<path class="st0" d="M103.7,34.2l1.7-3.7l-3.6,1.1l-0.4,0.3c0,0,0.1,0,0.1,0c0.5-0.1,0.8,0.6,0.3,0.9c-0.4,0.3-1,0.4-1.5,0.6
				c-0.3,0.1-0.6,0.1-0.9,0.1c-0.3,0-0.6-0.2-0.9,0c-0.2,0.1-0.4,0.1-0.5,0c-0.6,0.2-0.8-0.7-0.2-1c0.2-0.1,0.4-0.1,0.6-0.1
				l-1.5-0.7c0,0-1.7-0.3-3.2-0.7c-1.5-0.4-2.9-1-2.9-1l0,1l2.7,4.6l-2.7-3l0.3,1.8c0,0,2,3,3.3,4.3c1.5,1.4,2.1,2,5,1.7
				c1.9-0.2,2.4,0.3,3.8-2.3c1.9-3.2,2.5-5.8,2.5-5.8L103.7,34.2z"/>
			<path class="st2" d="M93.6,26.9c2,1,3.9,1.2,3.9,1.2s-0.3,1.7-1.8,1.5C93.9,29.3,93.6,26.9,93.6,26.9L93.6,26.9z"/>
			<path class="st2" d="M104.7,26.6c-1.4,0.8-3.6,1.3-3.6,1.3s0.4,1.6,1.9,1.3C104.5,28.9,104.7,26.6,104.7,26.6L104.7,26.6z"/>
			<path class="st1" d="M95.7,34.3c0,0,0.3,0.5,0.7,0.6c0.7,0.2,1.9,0.1,2.9,0.1c1.4,0,2.2-0.2,2.9-0.4c0.3-0.1,0.4-0.4,0.4-0.4
				l-0.2,1.1l-0.3-0.4c0,0-0.9,0.7-2.9,0.8c-1,0-2.5,0-3.2-0.5c-0.3-0.1-0.4,0.4-0.4,0.4L95.7,34.3L95.7,34.3z"/>
			<path class="st1" d="M98.3,36.6c0.8,0.1,1.8,0.2,2.3,0c0.6-0.3,0,0.8-0.8,0.9C98.1,37.6,97.5,36.5,98.3,36.6L98.3,36.6z"/>
		</g>
	</g>
</g>
<g id="Blue">
	<g id="Ebene_8">
	</g>
	<g id="Ebene_7">
		<path class="st3" d="M56.3,36.6c0,0.1-0.1,0.1-0.1,0.2c-0.4,0.5-0.8,0.9-1.3,1.1c0.2,4.9,0.4,10.4,0.7,16.2
			c1,22.1,2.2,40.1,2.6,40c0.4,0,0-18-1-40.1C56.9,47.8,56.6,41.9,56.3,36.6z"/>
		<path class="st3" d="M54.5,10.1c0-0.1-0.1-0.1-0.1,0l-0.1,0.1c0,0,0,0.1,0,0.2l5.3,8.8c0,0.1,0.1,0.1,0.1,0l0.1-0.1
			c0,0,0-0.1,0-0.2L54.5,10.1z"/>
		<path class="st3" d="M54.6,14c-0.3,0-0.2,6,0.1,15.3c0.5,0.3,0.9,0.7,1.3,1.1C55.4,20.4,54.9,14,54.6,14z"/>
		<path class="st3" d="M40.1,53.2c-0.2-0.1-0.4,0.1-0.5,0.4l-3.4,19c0,0,0,0,0,0C34.8,81,33.8,87.5,34,87.6s1.5-6.4,3-14.6
			c0,0,0,0,0,0l3.4-19C40.5,53.6,40.3,53.3,40.1,53.2z"/>
		<path class="st3" d="M138.4,74.1c-0.2,0-0.4,0.1-0.4,0.3l-0.1,9.2c0,0,0,0,0,0c0,4,0.1,7.1,0.3,7.1c0.2,0,0.4-3.1,0.5-7.1
			c0,0,0,0,0,0l0.1-9.2C138.8,74.2,138.6,74.1,138.4,74.1z"/>
		<path class="st3" d="M156.6,39.1l-16.5-25c-0.4-0.6-0.9-1-1.1-0.9c-0.2,0.1,0,0.7,0.4,1.4l16.5,25c0.4,0.6,0.9,1,1.1,0.9
			C157.2,40.3,157,39.7,156.6,39.1z"/>
		<path class="st3" d="M137.6,17.8c-0.2,0-0.4,0.6-0.4,1.4l-0.5,15.2c0,0.8,0.1,1.4,0.4,1.4c0.2,0,0.4-0.6,0.4-1.4l0.5-15.2
			C137.9,18.5,137.8,17.8,137.6,17.8z"/>
		<path class="st3" d="M104.6,19c-0.1-0.3-0.1-0.6-0.2-0.9c-0.1-0.5-0.3-1.1-0.4-1.6c0-0.1-0.1-0.1-0.1-0.2c0-0.1,0-0.1-0.1-0.2
			c-2.2-0.9-4.3-1.6-6.7-1.3c-1.7,0.2-3.4,0.9-5,1.4c-0.1,0-0.1,0.1-0.2,0.1c-0.1,0-0.1,0.1-0.2,0.1c-0.2,0.1-0.4,0.1-0.6-0.1
			c-0.3-0.2-0.5-0.6-0.7-0.9c-0.2-0.2-0.4-0.5-0.6-0.7c-0.1-0.1-0.2-0.3-0.3-0.4c0,0-0.1-0.1-0.1-0.1c0,0,0,0,0,0c0,0,0,0.1,0,0.1
			c0.1,0.2,0.1,0.3,0.2,0.5c0.1,0.2,0.1,0.5,0.2,0.7c0,0,0,0,0,0.1c0.1,0.2,0.1,0.4,0.2,0.6c0,0.2,0.1,0.3,0.1,0.5
			c0.1,0.4,0.3,0.9,0.3,1.3c0,0,0,0,0,0.1c0.1,0.3,0.1,0.5,0.1,0.8c0,0.1,0,0.2-0.1,0.2C90.2,19,90.1,19,90,19.1
			c0.1,1,0.4,2.1,0.6,3.1c0-0.1,0-0.1,0.1-0.2c0.1-0.2,0.1-0.4,0.2-0.6c0.1-0.1,0.1-0.1,0.2-0.2c0.1-0.1,0.1-0.1,0.2-0.1
			c0.1-0.1,0.2-0.1,0.3-0.2c0.1-0.1,0.1-0.2,0.2-0.3c0.2-0.3,0.3-0.6,0.4-0.9c0-0.1,0.1-0.2,0.2-0.2c0.1,0,0.2,0.1,0.2,0.2
			c0.1,0.2,0.1,0.4,0.1,0.6c0,0.1,0,0.2,0,0.2c0,0,0,0,0,0c0,0,0.1-0.1,0.1-0.1c0.1-0.2,0.1-0.3,0.2-0.5c0.1-0.1,0.2-0.2,0.3-0.1
			c0.1,0.1,0.1,0.1,0.2,0.2c0,0.1,0,0.1,0.1,0.2c0,0,0,0,0,0c0-0.1,0.1-0.1,0.1-0.2c0-0.1,0.1-0.2,0.1-0.3c0.1-0.3,0.1-0.5,0.2-0.8
			c0-0.2,0.1-0.4,0.1-0.6c0-0.1,0.1-0.2,0.2-0.2c0.1,0,0.4,0.2,0.4,0.3c0,0.3,0,0.6,0.1,0.9c0,0.2,0,0.3,0.3,0.3c0,0,0-0.1,0-0.1
			c0.1-0.2,0.2-0.5,0.3-0.7c0.1-0.2,0.1-0.4,0.2-0.5c0.1-0.2,0.1-0.4,0.2-0.6c0-0.1,0.2-0.1,0.3,0c0,0,0.1,0.1,0.1,0.1
			c0,0.1,0.1,0.1,0.1,0.2c0,0.1,0,0.2,0,0.3c0,0.2,0,0.4,0,0.6c0,0.1,0,0.2,0.1,0.3c0.2,0,0.2,0,0.2-0.2c0-0.3,0.2-0.6,0.1-0.9
			c0,0,0-0.1,0-0.1c0-0.1,0.1-0.1,0.1-0.1c0.1,0,0.2,0,0.2,0c0.1,0,0.2,0.1,0.2,0.2c0,0.1,0,0.2,0,0.3c0,0.2,0,0.3,0.1,0.5
			c0.1,0.1,0.1,0.2,0.2,0.1c0.1,0,0.1,0,0.2,0c0,0,0-0.1,0-0.1c0.1-0.3,0.1-0.6,0.1-0.9c0-0.1,0.1-0.2,0.2-0.3
			c0.2-0.1,0.3,0,0.3,0.2c0.1,0.1,0.1,0.2,0.1,0.3c0,0.1,0.1,0.2,0.1,0.2c0.1,0.1,0.2,0.1,0.2,0c0-0.1,0.1-0.1,0.1-0.2
			c0-0.1,0.1-0.2,0.2-0.2c0.2,0,0.5,0.1,0.6,0.3c0.1,0.2,0.2,0.4,0.2,0.6c0,0.1,0,0.3,0.1,0.5c0.1,0,0.2,0,0.2,0.2
			c0,0,0,0.1,0.1,0.1c0-0.1,0-0.2,0-0.3c0-0.3,0-0.5,0.1-0.8c0-0.1,0.1-0.1,0.2-0.2c0.2,0,0.3,0.2,0.4,0.3c0,0,0,0.1,0,0.2
			c0,0,0,0,0,0.1c0.1,0.2,0.2,0.4,0.3,0.6c0,0,0,0,0,0c0.1-0.2,0.2-0.3,0.2-0.5c0-0.2,0.1-0.3,0.3-0.3c0,0,0.1,0,0.1,0
			c0.1,0,0.2,0,0.2,0.1c0,0.1,0.1,0.3,0.2,0.4c0,0,0,0.1,0,0.1c0,0.3,0.1,0.6,0.1,1c0,0.1,0,0.2,0.1,0.2c0.1,0,0.1-0.1,0.2-0.2
			c0-0.1,0.1-0.2,0.2-0.1c0.1,0,0.1,0,0.2,0c0.1,0,0.1,0.1,0.2,0.2c0,0.1,0.1,0.2,0.1,0.3c0,0,0,0.1,0,0.1c0,0.2,0,0.4,0,0.6
			c0,0,0,0.1,0,0.1c0.1,0.1,0.1,0.2,0.1,0.2c0,0,0,0.1,0,0.1c0.1,0.1,0.1,0.2,0.2,0.2c0,0,0.1,0.1,0.1,0.1c0-0.2,0-0.3,0.1-0.5
			c0-0.3,0.1-0.6,0.5-0.7c0.1,0,0.2,0,0.2,0.1c0.1,0.2,0.2,0.2,0.3,0.2c0-0.1,0.1-0.2,0.1-0.3c0,0,0-0.1,0-0.1
			C104.7,20.4,104.7,19.7,104.6,19z"/>
		<path class="st3" d="M138.5,11.1l-0.2-0.1c-0.1-0.1-0.2,0-0.3,0.1l-12.5,22.3c-0.1,0.1,0,0.2,0.1,0.3l0.2,0.1
			c0.1,0.1,0.2,0,0.3-0.1l12.5-22.3C138.7,11.3,138.6,11.1,138.5,11.1z"/>
	</g>
</g>
<g id="Ebene_3">
	<g>
		<path class="st4" d="M105.8,30.6c-0.2-0.1-0.4-0.1-0.7,0c-1.2,0.4-2.4,0.8-3.5,1.3c-1.2,0.5-2.5,0.7-3.8,0.4
			c-1-0.2-1.9-0.6-2.8-0.9c-1-0.3-2-0.7-3-1c-0.3-0.1-0.5-0.2-0.6-0.5c0-0.2-0.2-0.3-0.3-0.5c0.3,0,0.5,0.1,0.7,0.1
			c1.3,0.3,2.6,0.7,3.9,1.1c0.7,0.2,1.5,0.3,2.3,0.3c0.2,0,0.3,0,0.3,0.2c0,0.5,0.3,0.9,0.9,1c0.5,0.1,1.1,0.1,1.5-0.3
			c0.4-0.3,0.4-0.8,0.1-1.2c0.4-0.2,0.9-0.2,1.4-0.2c1.1-0.1,2.1-0.5,3.2-0.6c0.4,0,0.5,0,0.5,0.3c0,0.1,0,0.3,0,0.4
			C105.9,30.5,105.9,30.6,105.8,30.6z"/>
		<path class="st4" d="M93.8,35.7c-0.2-0.3-0.4-0.5-0.4-0.8c-0.1-0.4-0.3-0.7-0.7-1c-0.5-0.4-0.9-0.9-1.5-1.2
			c-0.2-0.1-0.4-0.3-0.4-0.6c-0.1-0.5,0-1,0.1-1.5c0,1,0.7,1.6,1.4,2.3c0.4,0.4,0.8,0.7,1.1,1.2C93.7,34.5,93.9,35.1,93.8,35.7z"/>
		<path class="st4" d="M105.9,31c0,0.6,0.1,1.2-0.2,1.7c0,0.1,0,0.3-0.3,0.1c0,0-0.1,0.1-0.2,0.1c-0.4,0.2-0.6,0.5-0.9,0.8
			c-0.1,0.1-0.2,0.3-0.4,0.2C104.4,32.9,105.2,32,105.9,31C105.9,30.9,105.9,31,105.9,31z"/>
		<path class="st4" d="M103.2,35.2c0-0.2-0.2-0.4,0-0.6c0-0.1,0.1-0.2,0.2-0.1c0.1,0,0.1,0.1,0.1,0.2c0,0.2,0,0.4-0.1,0.6
			C103.3,35.2,103.2,35.2,103.2,35.2z"/>
		<path class="st4" d="M102.7,36.6c-0.1-0.3,0.1-0.5,0.3-0.6c0.1,0,0.1,0,0.1,0C103.1,36.2,102.9,36.4,102.7,36.6z"/>
	</g>
</g>
<g id="Ebene_5">
	<path class="st5" d="M51,46c8.6-0.3,22.2-25.2,4.2-26.4c-3.4-0.2-11.2,2.5-12.4,3.4c-2.1,1.7,4.4-0.7,4.5,0.5
		c0,0.6-11,13.6-18.3,27.3C23.4,61.4,19.9,72.1,18,77.6c-0.8,2.3-1.2,3.5-0.7,3.7c0.9,0.4,1.4-0.6,2.3-1.6c0.9-1,1.7-2.1,1.7-2.1
		s4.2,5.7,11.1,4.6c4.1-0.6,8.2-0.4,14.8-10.9C53.8,60.8,54.8,51.4,51,46L51,46z M42.5,65c-3.6,7.3-8.7,11.6-10.8,8.7
		c-2.1-2.9,2.6-13.3,8.4-22.4C42.3,47.9,45.5,58.9,42.5,65L42.5,65z M44.3,42.8c-1.1-0.4,6.3-12.2,7.9-12.8c1.6-0.5,5.1,1.2,0.5,8.6
		C50.2,42.6,45.4,43.2,44.3,42.8L44.3,42.8z M75.8,32.7c0,0-3.9-1.9-6.4-0.9c-0.1-1.5-1.9-6.3-1.9-6.3c0.3,3.2-5.3,17.4-7.4,23.7
		C57.9,55.5,48.6,72,47.4,75c-1.1,2.5,1.5,6.7,3.4,6.2c1.4-0.4,6.6-11.3,9.5-15.7c1-1.5,6.8-0.8,6.7,1.2c-0.1,4.3-4.4,14-7.1,22.8
		c5.8-2.4,8.7,3.3,8.7,3.3s1.8-12.4,5.5-25.5c3.7-13.2,4.6-39.4,4.6-39.4L75.8,32.7L75.8,32.7z M69.8,56.3c-1.5,0.3-4.9,0.8-6.5,0.6
		c-0.3-0.1,1.1-2.4,2.4-5.7c1.8-4.7,3.8-10.8,3.8-10.8s2.4-0.5,2.4,1.6C71.7,47,70.8,56.1,69.8,56.3L69.8,56.3z M93.1,56.8
		c0.3-2.2,0.8-3.4,2.3-3.4c2.1,0,5.6,0.1,6.8,0.1c0.7,0,1.2-1.4,2.1-3.8c1.5-3.9,3.4-9.5,3.4-9.5l-5.9,6.5c0,0-3.2-1.3-9.3-1.4
		c-6.2-0.1-10.8,0.5-10.8,0.5L80,40.9c-0.5,4.5-0.8,10-1.8,12.9c-1.1,2.9,6.9-1.9,7.2,0.4c0.3,2.4-4.6,22-7,35.1
		c1.3-3.4,6.4-9.6,10.8-9.5C89,75.9,91.5,62.5,93.1,56.8L93.1,56.8z M164.9,46.6c-9.8-17.2-19.3-26.4-20-25.9
		c-1.2,0.7,1.6,4.1-1.7,3.9c-2.4-0.1,1.8,2.9,6.7,10.7c4.9,7.8,10.4,18.3,10.4,18.3s-11.6-11-14.7-14.1c0,3.7-2.6,5-2.6,5
		c2.4,6.1,12.4,40.3,12.4,40.3s0.3-3.4,2.9-5c2.6-1.6,2.9-1.6,2.9-1.6s-2.1-10.3-5.8-16.6c10.1,5.4,17.6,19,17.6,19s1-1.7,2.9-1.7
		c1.4,0,2.8,1.8,3.2,1.4C179.4,79.9,172,59.1,164.9,46.6L164.9,46.6z M135.8,23.3l-0.9,11.4c0,0-1.6,0-3.9,0.3c-2.4,0.3-3.8,2-3.8,2
		l-2.6-3.7c0.8,6.1,1.8,42.2,1.8,44.7c0,2.5,2.3,1.5,4.5,2.6c1.7,0.9,3.5,2.9,3.9,2.8c1.1-0.3-2-14.5-1.4-15.7
		c0.5-1.2,4.9-1.1,5.4,0.1c2.1,4.6,5.3,23.8,6.1,23.4c0.8-0.4,0-6.3,3.4-9.5c1.8-1.6,4-1.6,3.2-3.7
		C139.2,51.3,135.8,23.3,135.8,23.3L135.8,23.3z M137.9,62c-0.1,0.4-1.5,0.3-2.6,0.4c-1.3,0.2-2.5,0.6-2.6,0.1
		c-0.3-0.9-1-14.4-1-14.4s2.5-0.7,3,0.4C136,52.3,138.1,61.4,137.9,62L137.9,62z M111.6,63.3c0-4.7-1.4-18.8-1.4-18.8
		c-0.6,1.8-2.7,10.4-6.9,17.5c-6.9,11.6-10.3,17.6-11,19.8c-1.3,4,2.9,10.4,4.5,7c1.5-3.4,8.5-20,8.5-20s3.3,13.1,4.5,12.7
		c1.2-0.4,2.5-9.7,6.1-15.3c1.4,5.3-0.5,15.8,0.4,26.5c1.4-2.4,2.5-5.3,6.8-3.7c1.7-13.3-1.7-47.5-3-58.8
		C119.5,43,115,46.3,111.6,63.3L111.6,63.3z"/>
</g>
<g id="Noise">
	<path class="st6" d="M101.2,31.3l-1.4-1.8c0,0-0.1,0-0.1,0l0,0c0,0-0.1,0.1-0.1,0.1l-0.1,2.3c0,0,0,0.1,0,0.1s0.1,0,0.1,0l1.6-0.5
		c0,0,0.1,0,0.1-0.1S101.2,31.3,101.2,31.3z"/>
</g>
</svg>
